# xmcd CD database file
#
# Track frame offsets:
#	150
#	9185
#	23365
#	36337
#	49667
#	63570
#	76200
#	95695
#	106042
#	123690
#	134815
#	151167
#	183572
#
# Disc length: 3164 seconds
#
# Revision: 0
# Processed by: cddbd v1.5.2PL0 Copyright (c) Steve Scherf et al.
# Submitted via: CDex 1.50
#
DISCID=a20c5a0d
DTITLE=the tiger lillies with kronos quartett - the gorey end
DYEAR=2000
DGENRE=Jazz
TTITLE0=01 hipdeep family intro
TTITLE1=02 abc
TTITLE2=03 weeping chandelier
TTITLE3=04 jesus on the windshield
TTITLE4=05 besotted mother
TTITLE5=06 gin
TTITLE6=07 learned pig
TTITLE7=08 hertha strubb
TTITLE8=09 dreadful domesticity
TTITLE9=10 qrv
TTITLE10=11 histoire de kay
TTITLE11=12 trampled lilly
TTITLE12=13 hipdeep family
EXTD=YEAR: 2000
EXTT0=
EXTT1=
EXTT2=
EXTT3=
EXTT4=
EXTT5=
EXTT6=
EXTT7=
EXTT8=
EXTT9=
EXTT10=
EXTT11=
EXTT12=
PLAYORDER=
